<?xml version="1.0" encoding="iso-8859-1"?>
<!-- Generator: Adobe Illustrator 19.0.0, SVG Export Plug-In . SVG Version: 6.00 Build 0)  -->
<svg version="1.1" id="Capa_1" xmlns="http://www.w3.org/2000/svg" xmlns:xlink="http://www.w3.org/1999/xlink" x="0px" y="0px"
	 viewBox="0 0 512 512" style="enable-background:new 0 0 512 512;" xml:space="preserve">
<path style="fill:#C27B48;" d="M512,376c0,8.399-6.599,15-15,15H196c-8.401,0-15-6.601-15-15c0-8.401,6.599-15,15-15h200.7
	l25.8-51.601c3.9-7.5,12.9-10.499,20.099-6.899c7.5,3.9,10.501,12.9,6.901,20.099L430.3,361H497C505.401,361,512,367.599,512,376z"
	/>
<path style="fill:#A66235;" d="M512,376c0,8.399-6.599,15-15,15H256v-30h140.7l25.8-51.601c3.9-7.5,12.9-10.499,20.099-6.899
	c7.5,3.9,10.501,12.9,6.901,20.099L430.3,361H497C505.401,361,512,367.599,512,376z"/>
<path style="fill:#805142;" d="M316,180c-8.291,0-15-6.709-15-15v-60c0-8.291,6.709-15,15-15h60c8.291,0,15,6.709,15,15
	C391,146.353,357.353,180,316,180z"/>
<path style="fill:#C27B48;" d="M331,1.199c0,0-15,10.8-30,21.601V105c0,8.399,6.599,15,15,15h90c8.401,0,15-6.601,15-15
	C421,52.2,381.7,8.399,331,1.199z"/>
<path style="fill:#10BB67;" d="M316,0h-75c-66.301,0-120,53.699-120,120v256c0,8.399,6.599,15,15,15h90c10.499,0,20.4-1.5,30-4.501
	c43.2-12.9,75-53.101,75-100.499V1.199C326.201,0.3,321.099,0,316,0z"/>
<path style="fill:#0CA656;" d="M331,1.199V286c0,47.399-31.8,87.599-75,100.499V0h60C321.099,0,326.201,0.3,331,1.199z"/>
<path style="fill:#57555C;" d="M271,75c0,8.399-6.599,15-15,15s-15-6.601-15-15c0-8.401,6.599-15,15-15S271,66.599,271,75z"/>
<path style="fill:#32D736;" d="M181,182.5c-29.7,6-53.101,29.7-58.801,59.7c-30.298,5.7-54.3,29.7-60,60
	C61.3,306.7,61,311.199,61,316c0,8.399,6.599,15,15,15h63.3c39.6,0,71.7-32.1,71.7-71.7v-44.7C197.5,200.799,181,182.5,181,182.5z"
	/>
<path style="fill:#FEA832;" d="M136,512c-41.353,0-75-33.647-75-75v-60c0-8.291,6.709-15,15-15h60c8.291,0,15,6.709,15,15v120
	C151,505.291,144.291,512,136,512z"/>
<path style="fill:#FF468C;" d="M196,482c-41.353,0-75-33.647-75-75v-30c0-8.291,6.709-15,15-15h60c8.291,0,15,6.709,15,15v90
	C211,475.291,204.291,482,196,482z"/>
<path style="fill:#3C3A41;" d="M271,75c0,8.399-6.599,15-15,15V60C264.401,60,271,66.599,271,75z"/>
<path style="fill:#61DE56;" d="M256,212.8c-13.2-19.2-34.799-31.8-60-31.8c-5.099,0-10.201,0.599-15,1.5v76.8
	c0,23.101-18.6,41.7-41.7,41.7H76c-4.799,0-9.3,0.3-13.801,1.199C27.4,308.8,0,339.399,0,376c0,8.399,6.599,15,15,15h124.3
	c50.7,0,94.801-28.801,116.7-70.8c9.6-18.301,15-39.001,15-60.901C271,242.199,265.6,226,256,212.8z"/>
<g>
</g>
<g>
</g>
<g>
</g>
<g>
</g>
<g>
</g>
<g>
</g>
<g>
</g>
<g>
</g>
<g>
</g>
<g>
</g>
<g>
</g>
<g>
</g>
<g>
</g>
<g>
</g>
<g>
</g>
</svg>
