<?xml version="1.0" encoding="iso-8859-1"?>
<!-- Generator: Adobe Illustrator 19.0.0, SVG Export Plug-In . SVG Version: 6.00 Build 0)  -->
<svg version="1.1" id="Capa_1" xmlns="http://www.w3.org/2000/svg" xmlns:xlink="http://www.w3.org/1999/xlink" x="0px" y="0px"
	 viewBox="0 0 512 512" style="enable-background:new 0 0 512 512;" xml:space="preserve">
<g>
	<path style="fill:#00CCB3;" d="M395.262,431.793h84.796c17.641,0,31.942-14.301,31.942-31.942v-33.746
		c0-17.641-14.301-31.942-31.942-31.942h-84.796V431.793z"/>
	<path style="fill:#00CCB3;" d="M116.738,431.793H31.942C14.301,431.793,0,417.492,0,399.851v-33.746
		c0-17.641,14.301-31.942,31.942-31.942h84.796C116.738,334.164,116.738,431.793,116.738,431.793z"/>
</g>
<g>
	<rect x="62.377" y="334.16" style="fill:#04BCA1;" width="54.365" height="97.63"/>
	<rect x="395.26" y="334.16" style="fill:#04BCA1;" width="54.365" height="97.63"/>
</g>
<path style="fill:#FFC477;" d="M56.358,478.182L56.358,478.182c-7.544,0-13.716-6.172-13.716-13.716V399.12
	c0-7.544,6.172-13.716,13.716-13.716l0,0c7.544,0,13.716,6.172,13.716,13.716v65.346C70.074,472.01,63.902,478.182,56.358,478.182z"
	/>
<path style="fill:#FFA733;" d="M56.358,385.404c-2.267,0-4.405,0.566-6.294,1.55c4.397,2.291,7.421,6.889,7.421,12.165v65.346
	c0,5.277-3.025,9.873-7.421,12.165c1.889,0.985,4.027,1.55,6.294,1.55c7.544,0,13.716-6.172,13.716-13.716V399.12
	C70.074,391.576,63.902,385.404,56.358,385.404z"/>
<path style="fill:#FFC477;" d="M455.642,478.182L455.642,478.182c7.544,0,13.716-6.172,13.716-13.716V399.12
	c0-7.544-6.172-13.716-13.716-13.716l0,0c-7.544,0-13.716,6.172-13.716,13.716v65.346
	C441.926,472.01,448.098,478.182,455.642,478.182z"/>
<g>
	<path style="fill:#FFA733;" d="M455.642,385.404c2.267,0,4.405,0.566,6.294,1.55c-4.397,2.291-7.421,6.889-7.421,12.165v65.346
		c0,5.277,3.025,9.873,7.421,12.165c-1.889,0.985-4.027,1.55-6.294,1.55c-7.544,0-13.716-6.172-13.716-13.716V399.12
		C441.926,391.576,448.098,385.404,455.642,385.404z"/>
	<path style="fill:#FFA733;" d="M427.061,225.053h-68.366l24.073-177.772c4.551-28.127,30.01-26.22,30.01-26.22
		c7.888,0,14.282,6.394,14.282,14.282L427.061,225.053L427.061,225.053z"/>
	<path style="fill:#FFA733;" d="M270.044,21.061h-28.09c-15.291,0-28.228,11.303-30.28,26.456l-24.04,177.536h136.732
		L300.325,47.517C298.273,32.364,285.336,21.061,270.044,21.061z"/>
</g>
<path style="fill:#FF9811;" d="M280.32,22.843c-3.222-1.152-6.683-1.782-10.276-1.782h-28.09c-15.291,0-28.228,11.303-30.28,26.456
	l-24.04,177.536h48.641l24.041-177.536C261.885,35.924,269.829,26.592,280.32,22.843z"/>
<path style="fill:#FFA733;" d="M84.94,225.053h68.366L129.233,47.281c-4.551-28.127-30.01-26.22-30.01-26.22
	c-7.888,0-14.282,6.394-14.282,14.282C84.94,35.343,84.94,225.053,84.94,225.053z"/>
<g>
	<path style="fill:#FF9811;" d="M119.015,27.627c-8.825-7.387-19.792-6.566-19.792-6.566c-7.888,0-14.282,6.394-14.282,14.282
		v189.71h31.799V35.343C116.738,32.498,117.58,29.853,119.015,27.627z"/>
	<path style="fill:#FF9811;" d="M392.986,27.627c8.825-7.387,19.792-6.566,19.792-6.566c7.888,0,14.282,6.394,14.282,14.282v189.71
		h-31.799V35.343C395.262,32.498,394.42,29.853,392.986,27.627z"/>
</g>
<path style="fill:#FFC477;" d="M41.771,190.807v142.575c0,11.872,9.714,21.584,21.584,21.584l0,0
	c11.872,0,21.584-9.714,21.584-21.584v-95.743h342.12v95.172c0,11.013,8.018,20.684,18.952,21.997
	c13.034,1.566,24.217-8.688,24.217-21.427V190.807c0-18.99-15.395-34.385-34.385-34.385H76.156
	C57.166,156.421,41.771,171.816,41.771,190.807z"/>
<path style="fill:#FFA733;" d="M449.626,202.163c0-13.884-11.255-25.138-25.138-25.138H87.513
	c-13.884,0-25.138,11.255-25.138,25.138v152.753c0.328,0.015,0.65,0.051,0.981,0.051l0,0c11.872,0,21.584-9.714,21.584-21.584
	V237.64h342.12v95.243c0,11.12,8.212,20.794,19.271,21.962c1.115,0.117,2.215,0.149,3.296,0.1L449.626,202.163L449.626,202.163z"/>
<path style="fill:#00DDC2;" d="M398.324,211.643H113.676c-15.871,0-28.737,12.866-28.737,28.737v200.468
	c0,27.679,22.438,50.118,50.118,50.118h241.883c27.679,0,50.118-22.438,50.118-50.118V240.38
	C427.06,224.509,414.194,211.643,398.324,211.643z"/>
<path style="fill:#00AA95;" d="M84.94,240.369c0,53.411,0,162.621,0,162.462c31.563,0,31.957-37.033,31.957-37.033v-58.608h278.207
	v58.608c0,0,0.393,37.033,31.956,37.033c0,0.16,0-109.051,0-162.462c0-15.871-12.866-28.726-28.737-28.726H113.676
	C97.805,211.643,84.94,224.498,84.94,240.369z"/>
<path style="fill:#00EED1;" d="M325.552,237.638c-38.412,0-69.552,31.139-69.552,69.552c0,6.055,0,6.055,0,0
	c0-38.412-31.139-69.552-69.552-69.552s-69.552,31.139-69.552,69.552s31.139,69.552,69.552,69.552h139.103
	c38.412,0,69.552-31.139,69.552-69.552C395.103,268.777,363.964,237.638,325.552,237.638z"/>
<circle style="fill:#57565C;" cx="186.452" cy="307.189" r="33.742"/>
<path style="fill:#3E3D42;" d="M182.147,307.189c0-13.357,7.762-24.899,19.021-30.368c-4.449-2.16-9.443-3.375-14.72-3.375
	c-18.635,0-33.743,15.107-33.743,33.741c0,18.635,15.107,33.742,33.743,33.742c5.278,0,10.272-1.214,14.72-3.375
	C189.911,332.089,182.147,320.547,182.147,307.189z"/>
<circle style="fill:#57565C;" cx="325.548" cy="307.189" r="33.742"/>
<path style="fill:#3E3D42;" d="M321.251,307.189c0-13.357,7.762-24.899,19.021-30.368c-4.449-2.16-9.443-3.375-14.72-3.375
	c-18.635,0-33.743,15.107-33.743,33.741c0,18.635,15.107,33.742,33.743,33.742c5.278,0,10.272-1.214,14.72-3.375
	C329.013,332.089,321.251,320.547,321.251,307.189z"/>
<path style="fill:#44FFE8;" d="M329.743,490.965H182.257c-31.412,0-57.112-25.701-57.112-57.112l0,0
	c0-31.412,25.701-57.112,57.112-57.112h147.487c31.412,0,57.112,25.701,57.112,57.112l0,0
	C386.856,465.266,361.156,490.965,329.743,490.965z"/>
<path style="fill:#00EED1;" d="M182.257,469.951c-19.566,0-36.098-16.53-36.098-36.098c0-19.567,16.531-36.098,36.098-36.098
	h147.487c19.567,0,36.099,16.53,36.099,36.098c0,19.567-16.531,36.098-36.099,36.098H182.257z"/>
<path style="fill:#57565C;" d="M182.257,454.498c-11.19,0-20.644-9.454-20.644-20.645c0-11.191,9.455-20.645,20.644-20.645h147.487
	c11.191,0,20.646,9.454,20.646,20.645c0,11.191-9.455,20.645-20.646,20.645H182.257z"/>
<path style="fill:#3E3D42;" d="M182.257,433.185h147.487c7.595,0,14.38,4.36,17.963,10.656c1.697-2.981,2.683-6.392,2.683-9.989
	c0-11.191-9.454-20.645-20.646-20.645H182.257c-11.19,0-20.644,9.454-20.644,20.645c0,3.596,0.986,7.007,2.683,9.989
	C167.877,437.545,174.662,433.185,182.257,433.185z"/>
<path style="fill:#FFC477;" d="M186.449,413.208h49.826l-17.047,45.913c-2.708,7.294-13.024,7.294-15.732,0L186.449,413.208z"/>
<path style="fill:#FFA733;" d="M206.174,413.208h-19.725l17.047,45.913c2.708,7.294,13.024,7.294,15.732,0l1.996-5.378
	L206.174,413.208z"/>
<path style="fill:#FFC477;" d="M275.726,413.208h49.826l-17.047,45.913c-2.708,7.294-13.024,7.294-15.732,0L275.726,413.208z"/>
<path style="fill:#FFA733;" d="M295.451,413.208h-19.725l17.047,45.913c2.708,7.294,13.024,7.294,15.732,0l1.996-5.378
	L295.451,413.208z"/>
<path style="fill:#00CCB3;" d="M289.432,389.997h-66.865c-13.311,0-24.201-10.89-24.201-24.201l0,0
	c0-13.311,10.89-24.201,24.201-24.201h66.865c13.311,0,24.201,10.89,24.201,24.201l0,0
	C313.633,379.107,302.743,389.997,289.432,389.997z"/>
<path style="fill:#00AA95;" d="M289.432,341.596h-66.865c-3.877,0-7.544,0.929-10.8,2.567v35.037c0,2.956,0.297,5.843,0.853,8.638
	c3.039,1.383,6.407,2.16,9.948,2.16h66.865c3.542,0,6.908-0.778,9.948-2.16c0.555-2.795,0.853-5.681,0.853-8.637v-35.04
	C296.976,342.525,293.309,341.596,289.432,341.596z"/>
<path style="fill:#00DDC2;" d="M256,402.83L256,402.83c-12.997,0-23.629-10.634-23.629-23.629v-75.208
	c0-12.997,10.634-23.629,23.629-23.629l0,0c12.997,0,23.629,10.634,23.629,23.629v75.208C279.629,392.197,268.997,402.83,256,402.83
	z"/>
<path style="fill:#00CCB3;" d="M254.157,379.2v-75.208c0-9.073,5.186-16.989,12.736-20.945c-3.265-1.71-6.97-2.685-10.893-2.685l0,0
	c-12.996,0-23.629,10.634-23.629,23.629V379.2c0,12.997,10.634,23.629,23.629,23.629l0,0c3.923,0,7.628-0.975,10.893-2.685
	C259.343,396.19,254.157,388.274,254.157,379.2z"/>
<g>
</g>
<g>
</g>
<g>
</g>
<g>
</g>
<g>
</g>
<g>
</g>
<g>
</g>
<g>
</g>
<g>
</g>
<g>
</g>
<g>
</g>
<g>
</g>
<g>
</g>
<g>
</g>
<g>
</g>
</svg>
