<?xml version="1.0" encoding="iso-8859-1"?>
<!-- Generator: Adobe Illustrator 19.0.0, SVG Export Plug-In . SVG Version: 6.00 Build 0)  -->
<svg version="1.1" id="Layer_1" xmlns="http://www.w3.org/2000/svg" xmlns:xlink="http://www.w3.org/1999/xlink" x="0px" y="0px"
	 viewBox="0 0 512 512" style="enable-background:new 0 0 512 512;" xml:space="preserve">
<g>
	<g>
		<g>
			<path style="fill:#FFCD00;" d="M377.078,458.898c-17.828,0-37.922-3.766-59.703-11.344
				c-50.266-17.484-104.203-53.367-151.883-101.047S81.93,244.891,64.445,194.625C46.289,142.422,50.031,99.937,74.984,74.984
				c24.945-24.945,67.43-28.703,119.641-10.539c50.266,17.484,104.203,53.367,151.883,101.047s83.562,101.617,101.047,151.883
				c18.156,52.203,14.414,94.687-10.539,119.641l0,0l0,0C422.476,451.555,401.984,458.898,377.078,458.898z M134.906,69.055
				c-20.539,0-37.141,5.773-48.609,17.242c-20.383,20.375-22.773,56.984-6.742,103.07c16.711,48.031,51.242,99.82,97.25,145.828
				s97.797,80.539,145.828,97.25c46.094,16.023,82.687,13.633,103.07-6.742l0,0c20.383-20.375,22.773-56.984,6.742-103.07
				c-16.711-48.031-51.242-99.82-97.25-145.828s-97.797-80.539-145.828-97.25C169.211,72.547,150.867,69.055,134.906,69.055z"/>
		</g>
	</g>
	<g>
		<g>
			<path style="fill:#FF9100;" d="M134.922,458.898c-24.906,0-45.398-7.344-59.937-21.883
				c-24.953-24.953-28.695-67.437-10.539-119.641c17.484-50.266,53.367-104.203,101.047-151.883S267.109,81.93,317.375,64.445
				c52.211-18.164,94.695-14.406,119.641,10.539l0,0l0,0c24.953,24.953,28.695,67.437,10.539,119.641
				c-17.484,50.266-53.367,104.203-101.047,151.883S244.891,430.07,194.625,447.555C172.844,455.133,152.75,458.898,134.922,458.898
				z M377.094,69.055c-15.969,0-34.305,3.492-54.461,10.5c-48.031,16.711-99.82,51.242-145.828,97.25s-80.539,97.797-97.25,145.828
				c-16.031,46.086-13.641,82.695,6.742,103.07c20.375,20.391,56.992,22.766,103.07,6.742c48.031-16.711,99.82-51.242,145.828-97.25
				s80.539-97.797,97.25-145.828c16.031-46.086,13.641-82.695-6.742-103.07l0,0C414.234,74.828,397.633,69.055,377.094,69.055z"/>
		</g>
	</g>
	<g>
		<g>
			<path style="fill:#FF4F19;" d="M256,512c-71.773,0-128-112.445-128-256S184.227,0,256,0s128,112.445,128,256S327.773,512,256,512
				z M256,16c-60.711,0-112,109.906-112,240s51.289,240,112,240s112-109.906,112-240S316.711,16,256,16z"/>
		</g>
	</g>
	<g>
		<circle style="fill:#FF4F19;" cx="255.891" cy="256.109" r="55.89"/>
	</g>
	<g>
		<circle style="fill:#FF8C62;" cx="269.71" cy="242.137" r="19.562"/>
	</g>
	<g>
		<g>
			<path style="fill:#E3001E;" d="M256,384C112.445,384,0,327.773,0,256s112.445-128,256-128s256,56.227,256,128
				S399.555,384,256,384z M256,144c-130.094,0-240,51.289-240,112s109.906,112,240,112s240-51.289,240-112S386.094,144,256,144z"/>
		</g>
	</g>
</g>
<g>
</g>
<g>
</g>
<g>
</g>
<g>
</g>
<g>
</g>
<g>
</g>
<g>
</g>
<g>
</g>
<g>
</g>
<g>
</g>
<g>
</g>
<g>
</g>
<g>
</g>
<g>
</g>
<g>
</g>
</svg>
