<?xml version="1.0" encoding="iso-8859-1"?>
<!-- Generator: Adobe Illustrator 19.0.0, SVG Export Plug-In . SVG Version: 6.00 Build 0)  -->
<svg version="1.1" id="Capa_1" xmlns="http://www.w3.org/2000/svg" xmlns:xlink="http://www.w3.org/1999/xlink" x="0px" y="0px"
	 viewBox="0 0 483.556 483.556" style="enable-background:new 0 0 483.556 483.556;" xml:space="preserve">
<g transform="matrix(1.25 0 0 -1.25 0 45)">
	<g>
		<g>
			<g transform="translate(18 33)">
				<path style="fill:#F2ABBA;" d="M175.422-19.756c0,0,0,22.756-34.133,22.756c-22.756,0-61.156-23.233-68.267-45.511
					c-22.756,0-56.889-45.511-45.511-79.644c-34.133-11.378-41.244-91.5-22.756-102.4C-18-247.311-6.622-304.2,38.889-315.578
					c11.48-35.214,40.96-58.63,68.267-56.889c9.956-8.055,20.389-11.378,34.133-11.378c34.133,0,34.133,22.278,34.133,56.411
					V-19.756z"/>
				<path style="fill:#F2ABBA;" d="M175.422-19.756c0,0,0,22.756,34.133,22.756c22.756,0,61.156-23.233,68.267-45.511
					c22.756,0,56.889-45.511,45.511-79.644c34.133-11.378,41.244-91.5,22.756-102.4c22.756-22.756,11.378-79.644-34.133-91.022
					c-11.48-35.214-40.96-58.63-68.267-56.889c-9.956-8.055-20.389-11.378-34.133-11.378c-34.133,0-34.133,22.278-34.133,56.411
					V-19.756z"/>
			</g>
			<g>
				<path style="fill:#E75A70;" d="M125.156-72.089c-0.592,0-1.195,0.091-1.798,0.296C93.275-61.769,85.333-34.11,85.333-20.889
					c0,3.129,2.537,5.666,5.666,5.678h0.023c3.118,0,5.666-2.526,5.689-5.655c0.011-1.229,0.558-30.242,30.242-40.141
					c2.981-0.99,4.597-4.21,3.595-7.191C129.752-70.587,127.534-72.089,125.156-72.089"/>
				<path style="fill:#E75A70;" d="M125.156-94.844c-2.094,0-4.096,1.149-5.097,3.14c-11.014,22.027,4.301,36.955,13.926,41.768
					c2.81,1.388,6.224,0.273,7.634-2.537c1.399-2.799,0.273-6.212-2.526-7.623c-1.798-0.922-17.351-9.512-8.852-26.51
					c1.399-2.81,0.262-6.235-2.549-7.634C126.874-94.651,126.009-94.844,125.156-94.844"/>
				<path style="fill:#E75A70;" d="M93.889-152.974l-4.665,1.536c-36.739,12.242-45.818,50.13-46.182,51.735
					c-0.705,3.049,1.206,6.098,4.255,6.804c3.061,0.694,6.11-1.195,6.827-4.255c0.08-0.319,7.384-30.231,34.486-41.882
					c5.006,7.418,17.044,21.436,36.557,21.436c3.14,0,5.689-2.537,5.689-5.689c0-3.14-2.549-5.689-5.689-5.689
					c-18.876,0-28.956-19.422-29.059-19.627L93.889-152.974z"/>
				<path style="fill:#E75A70;" d="M113.766-195.663c-0.626,0-1.274,0.102-1.9,0.319c-2.947,1.058-4.494,4.267-3.47,7.225
					c0.137,0.375,13.687,37.296,63.647,24.849c3.049-0.774,4.904-3.857,4.13-6.906c-0.762-3.049-3.88-4.87-6.895-4.142
					c-39.652,9.921-49.732-16.475-50.153-17.59C118.283-194.218,116.099-195.663,113.766-195.663"/>
				<path style="fill:#E75A70;" d="M79.644-254.133c-0.853,0-1.718,0.193-2.537,0.603c-17.271,8.636-18.978,23.472-16.589,34.133
					c-20.844,3.186-35.453,18.125-36.136,18.83c-2.173,2.253-2.105,5.848,0.148,8.033c2.253,2.173,5.86,2.105,8.033-0.137
					c0.159-0.148,15.747-15.952,35.703-15.952h9.216l-4.119-8.238c-0.876-1.798-8.169-18,8.829-26.499
					c2.81-1.411,3.948-4.824,2.549-7.634C83.74-252.973,81.738-254.133,79.644-254.133"/>
				<path style="fill:#E75A70;" d="M136.533-333.778c-1.49,0-2.981,0.58-4.096,1.741c-2.173,2.264-2.116,5.86,0.137,8.033
					c0.205,0.205,20.605,20.252,15.531,38.946c-0.819,3.038,0.967,6.155,3.994,6.986c3.038,0.808,6.167-0.967,6.986-4.005
					c6.849-25.213-17.567-49.095-18.614-50.108C139.378-333.243,137.956-333.778,136.533-333.778"/>
				<path style="fill:#E75A70;" d="M161.109-289.268c-21.549,0-29.252,14.791-29.616,15.508c-1.411,2.81-0.273,6.235,2.526,7.646
					c2.81,1.399,6.19,0.284,7.612-2.48c0.353-0.649,7.168-12.481,27.978-8.408c3.061,0.637,6.064-1.388,6.679-4.471
					c0.614-3.083-1.399-6.076-4.471-6.679C167.913-288.938,164.352-289.268,161.109-289.268"/>
				<path style="fill:#E75A70;" d="M133.495-9.591c-1.365,0-2.731,0.489-3.823,1.479c-2.321,2.105-2.503,5.689-0.398,8.021
					c0.592,0.649,14.655,15.997,32.427,16.441c8.943,0.319,17.192-3.288,24.36-10.468c2.219-2.219,2.219-5.814,0-8.044
					c-2.219-2.219-5.825-2.219-8.044,0c-4.938,4.938-10.456,7.339-15.974,7.134c-12.868-0.296-24.223-12.584-24.337-12.698
					C136.579-8.965,135.043-9.591,133.495-9.591"/>
				<path style="fill:#E75A70;" d="M261.689-72.089c-2.378,0-4.597,1.502-5.404,3.891c-0.99,2.981,0.626,6.201,3.607,7.191
					c29.685,9.899,30.231,38.912,30.242,40.141c0.023,3.14,2.219,5.78,5.712,5.655c3.129-0.011,5.666-2.549,5.666-5.678
					c0-13.221-7.942-40.88-38.025-50.904C262.884-71.998,262.292-72.089,261.689-72.089"/>
				<path style="fill:#E75A70;" d="M261.689-94.844c-0.853,0-1.718,0.193-2.549,0.603c-2.81,1.399-3.937,4.824-2.537,7.634
					c8.59,17.169-7.02,25.589-8.841,26.499c-2.81,1.399-3.937,4.824-2.537,7.634c1.411,2.81,4.836,3.925,7.634,2.537
					c9.626-4.813,24.929-19.74,13.915-41.768C265.774-93.695,263.771-94.844,261.689-94.844"/>
				<path style="fill:#E75A70;" d="M292.966-152.996l-2.219,4.392c-0.102,0.193-10.194,19.627-29.059,19.627
					c-3.14,0-5.689,2.537-5.689,5.689c0,3.14,2.549,5.689,5.689,5.689c19.513,0,31.539-14.029,36.545-21.447
					c27.261,11.685,34.406,41.563,34.486,41.882c0.694,3.049,3.721,5.018,6.815,4.267c3.061-0.694,4.972-3.755,4.278-6.815
					c-0.364-1.604-9.444-39.481-46.194-51.723L292.966-152.996z"/>
				<path style="fill:#E75A70;" d="M273.067-195.686c-2.344,0-4.528,1.456-5.359,3.777c-0.41,1.126-10.615,27.511-50.153,17.59
					c-3.038-0.705-6.144,1.104-6.895,4.142c-0.762,3.049,1.081,6.133,4.142,6.906c49.937,12.481,63.499-24.474,63.636-24.849
					c1.035-2.97-0.523-6.212-3.493-7.248C274.318-195.583,273.692-195.686,273.067-195.686"/>
				<path style="fill:#E75A70;" d="M307.2-254.133c-2.082,0-4.085,1.161-5.086,3.14c-1.399,2.81-0.273,6.224,2.537,7.634
					c17.169,8.59,9.739,24.69,8.841,26.499l-4.119,8.238h9.205c19.968,0,35.556,15.804,35.715,15.952
					c2.207,2.241,5.769,2.321,8.044,0.125c2.253-2.173,2.321-5.769,0.137-8.021c-0.683-0.705-15.292-15.644-36.136-18.83
					c2.389-10.661,0.671-25.498-16.589-34.133C308.918-253.94,308.053-254.133,307.2-254.133"/>
				<path style="fill:#E75A70;" d="M250.311-333.778c-1.422,0-2.844,0.535-3.948,1.593c-1.035,1.013-25.452,24.895-18.603,50.108
					c0.819,3.026,3.925,4.813,6.975,4.005c3.026-0.831,4.824-3.948,3.994-6.986c-5.097-18.785,15.326-38.73,15.531-38.935
					c2.264-2.173,2.332-5.78,0.148-8.044C253.292-333.198,251.802-333.778,250.311-333.778"/>
				<path style="fill:#E75A70;" d="M225.781-289.268c-3.243,0-6.815,0.33-10.695,1.115c-3.095,0.603-5.097,3.595-4.483,6.679
					c0.614,3.083,3.652,5.131,6.679,4.471c21.026-4.119,27.694,7.896,27.989,8.42c1.456,2.753,4.881,3.834,7.657,2.389
					c2.753-1.434,3.868-4.79,2.469-7.566C255.033-274.477,247.319-289.268,225.781-289.268"/>
				<path style="fill:#E75A70;" d="M253.349-9.591c-1.547,0-3.083,0.626-4.21,1.866c-0.114,0.114-11.469,12.402-24.337,12.698
					c-5.905,0.273-11.036-2.196-15.974-7.134c-2.219-2.219-5.825-2.219-8.044,0c-2.219,2.23-2.219,5.825,0,8.044
					c7.168,7.168,15.053,10.866,24.36,10.468c17.761-0.444,31.835-15.792,32.427-16.441c2.105-2.332,1.923-5.916-0.398-8.021
					C256.08-9.102,254.714-9.591,253.349-9.591"/>
				<path style="fill:#E75A70;" d="M199.111,1.867h-11.378c-3.129,0-5.689-2.56-5.689-5.689v-295.822
					c0-3.129,2.56-5.689,5.689-5.689h11.378c3.129,0,5.689,2.56,5.689,5.689V-3.822C204.8-0.693,202.24,1.867,199.111,1.867"/>
			</g>
		</g>
	</g>
</g>
<g>
</g>
<g>
</g>
<g>
</g>
<g>
</g>
<g>
</g>
<g>
</g>
<g>
</g>
<g>
</g>
<g>
</g>
<g>
</g>
<g>
</g>
<g>
</g>
<g>
</g>
<g>
</g>
<g>
</g>
</svg>
