<?xml version="1.0" encoding="iso-8859-1"?>
<!-- Generator: Adobe Illustrator 19.0.0, SVG Export Plug-In . SVG Version: 6.00 Build 0)  -->
<svg version="1.1" id="Capa_1" xmlns="http://www.w3.org/2000/svg" xmlns:xlink="http://www.w3.org/1999/xlink" x="0px" y="0px"
	 viewBox="0 0 56 56" style="enable-background:new 0 0 56 56;" xml:space="preserve">
<circle style="fill:#E57E25;" cx="28" cy="28" r="28"/>
<path style="fill:#38454F;" d="M0.729,30.188c3.621-3.458,9.574-4.556,13.853-2.558c-3.798,5.417-6.596,11.581-8.155,18.219
	c0.471,0.569,0.968,1.114,1.482,1.643c0.141-0.133,0.252-0.3,0.296-0.503c1.471-6.684,4.259-12.877,8.075-18.296
	c2.555,1.983,3.809,5.247,3.525,9.435l-0.004,0.054l0.002,0.055c0.251,6.063,3.746,11.611,9.348,14.839
	c1.762,1.016,3.608,1.723,5.466,2.129c1.658-0.402,3.256-0.952,4.784-1.634c-3.049,0.236-6.277-0.514-9.252-2.228
	c-4.989-2.875-8.105-7.782-8.346-13.136c0.395-6.064-2.008-9.374-4.324-11.145c1.487-1.945,3.112-3.778,4.858-5.488
	c7.154,6.653,13.881,13.779,20.076,21.313l4.313,5.247l1.545-1.271l-4.313-5.247c-6.223-7.568-12.977-14.728-20.16-21.416
	c1.39-1.259,2.85-2.442,4.373-3.543c2.39,3.021,6.233,4.501,11.036,4.185c4.519,0.205,8.76,2.665,11.643,6.754
	c2.242,3.18,3.383,6.962,3.269,10.49c0.623-1.611,1.099-3.294,1.417-5.033c-0.592-2.311-1.617-4.575-3.051-6.609
	c-3.255-4.617-8.084-7.388-13.248-7.602l-0.055-0.002l-0.054,0.004c-4.07,0.274-7.294-0.911-9.295-3.34
	c5.142-3.417,10.935-5.93,17.155-7.3c0.203-0.045,0.365-0.161,0.498-0.302c-0.528-0.512-1.072-1.008-1.639-1.477
	c-6.19,1.454-11.965,3.99-17.109,7.407c-1.946-3.908-1.265-9.4,1.667-13.169l0.407-0.523C29.888,0.048,28.95,0,28,0v0.614
	c-2.774,4.391-3.187,10.109-0.926,14.371c-1.659,1.195-3.245,2.483-4.753,3.857c-3.269-2.989-6.615-5.891-10.053-8.674L8.953,7.484
	C8.461,7.941,7.987,8.415,7.529,8.906l3.481,2.818c3.369,2.727,6.649,5.569,9.855,8.497c-1.829,1.798-3.531,3.726-5.085,5.772
	c-0.114-0.058-0.23-0.118-0.339-0.169C10.698,23.603,4.46,24.534,0.19,28H0c0,0.93,0.048,1.848,0.136,2.754L0.729,30.188z"/>
<g>
</g>
<g>
</g>
<g>
</g>
<g>
</g>
<g>
</g>
<g>
</g>
<g>
</g>
<g>
</g>
<g>
</g>
<g>
</g>
<g>
</g>
<g>
</g>
<g>
</g>
<g>
</g>
<g>
</g>
</svg>
